<?xml version="1.0" encoding="utf-8"?>
<!-- Generator: Adobe Illustrator 16.0.0, SVG Export Plug-In . SVG Version: 6.00 Build 0)  -->
<!DOCTYPE svg PUBLIC "-//W3C//DTD SVG 1.1//EN" "http://www.w3.org/Graphics/SVG/1.1/DTD/svg11.dtd">
<svg version="1.1" id="Layer_1" xmlns="http://www.w3.org/2000/svg" xmlns:xlink="http://www.w3.org/1999/xlink" x="0px" y="0px"
	 width="128px" height="128px" viewBox="0 0 128 128" enable-background="new 0 0 128 128" xml:space="preserve">
<g>
	<path fill="#FFFFFF" d="M50,75.531c-25.64,0-46.5-16.149-46.5-36c0-5.747,1.701-11.239,5.056-16.327l0.368-0.558L4.104,4.152
		l20.108,5.425l0.512-0.258C32.25,5.533,40.99,3.531,50,3.531c25.64,0,46.5,16.149,46.5,36S75.641,75.531,50,75.531z"/>
	<path fill="#D5E381" d="M50,5.031c24.814,0,45,15.477,45,34.5s-20.186,34.5-45,34.5c-24.813,0-45-15.477-45-34.5
		c0-5.448,1.618-10.663,4.809-15.5l0.736-1.116l-0.337-1.293L6.207,6.273l17.062,4.603l1.106,0.298l1.023-0.515
		C32.716,6.978,41.223,5.031,50,5.031 M50,2.031c-9.561,0-18.469,2.184-25.951,5.948L2,2.031l5.304,20.348
		C3.915,27.519,2,33.351,2,39.531c0,20.711,21.49,37.5,48,37.5c26.509,0,48-16.789,48-37.5C98,18.821,76.51,2.031,50,2.031L50,2.031
		z"/>
</g>
<g>
	<path fill="#FFFFFF" d="M78,124.5c-25.64,0-46.5-16.149-46.5-36s20.86-36,46.5-36c25.641,0,46.5,16.149,46.5,36
		c0,5.746-1.701,11.239-5.057,16.326l-0.368,0.558l4.821,18.495l-20.107-5.425l-0.512,0.258C95.751,122.498,87.01,124.5,78,124.5z"
		/>
	<path fill="#8599A9" d="M78,54c24.813,0,45,15.477,45,34.5c0,5.447-1.618,10.662-4.809,15.501l-0.736,1.115l0.337,1.293
		l4.002,15.349l-17.062-4.603l-1.106-0.299l-1.023,0.516C95.285,121.054,86.777,123,78,123c-24.813,0-45-15.477-45-34.5
		S53.187,54,78,54 M78,51c-26.51,0-48,16.789-48,37.5S51.49,126,78,126c9.561,0,18.469-2.184,25.951-5.948L126,126l-5.305-20.348
		C124.086,100.512,126,94.681,126,88.5C126,67.789,104.51,51,78,51L78,51z"/>
</g>
</svg>
