<?xml version="1.0" encoding="utf-8"?>
<!-- Generator: Adobe Illustrator 16.0.0, SVG Export Plug-In . SVG Version: 6.00 Build 0)  -->
<!DOCTYPE svg PUBLIC "-//W3C//DTD SVG 1.1//EN" "http://www.w3.org/Graphics/SVG/1.1/DTD/svg11.dtd">
<svg version="1.1" id="Layer_1" xmlns="http://www.w3.org/2000/svg" xmlns:xlink="http://www.w3.org/1999/xlink" x="0px" y="0px"
	 width="128px" height="128px" viewBox="0 0 128 128" enable-background="new 0 0 128 128" xml:space="preserve">
<path fill="#D5E381" d="M93.172,93.52c1.758-1.721,2.479-4.09,2.178-6.354c2.256,0.348,4.641-0.324,6.395-2.045
	c2.959-2.9,3.008-7.648,0.107-10.607L73.506,45.586l-1.441,2.814l27.645,28.212c1.738,1.771,1.709,4.627-0.062,6.363
	c-1.773,1.738-4.629,1.707-6.365-0.064L77.186,66.484c-0.58-0.592-1.531-0.602-2.123-0.021s-0.602,1.529-0.021,2.121l16.098,16.428
	c1.736,1.773,1.707,4.627-0.064,6.365c-1.773,1.736-4.627,1.705-6.365-0.066L72.812,79.168c-0.58-0.592-1.529-0.6-2.123-0.021
	c-0.59,0.58-0.6,1.531-0.02,2.123L82.566,93.41c1.736,1.773,1.709,4.627-0.064,6.363c-1.771,1.738-4.627,1.709-6.363-0.064
	l-6.998-7.143c-0.58-0.592-1.531-0.6-2.123-0.021c-0.59,0.578-0.602,1.529-0.02,2.121l6.998,7.143
	c1.736,1.773,1.707,4.627-0.064,6.363c-1.771,1.738-4.627,1.709-6.363-0.064l-3.85-3.928l-2.144,2.1l3.851,3.93
	c2.898,2.957,7.646,3.006,10.605,0.107c1.756-1.721,2.479-4.09,2.176-6.354c2.256,0.35,4.639-0.326,6.395-2.047
	c1.756-1.719,2.479-4.088,2.178-6.352C89.035,95.914,91.418,95.238,93.172,93.52z"/>
<path fill="#D5E381" d="M17.401,58.353l24.427-27.81l10.933,2.851l0.757-2.902L42.55,27.631l-13.772-11.25
	c-0.629-0.513-1.551-0.434-2.082,0.178L2.367,44.599c-0.502,0.579-0.487,1.441,0.034,2.002L27.583,73.73l2.198-2.041L17.401,58.353z
	"/>
<g>
	<path fill="#8599A9" d="M36.817,72.438c1.736,1.773,1.707,4.627-0.065,6.365l-4.285,4.199c-1.772,1.734-4.627,1.705-6.364-0.066
		c-1.736-1.771-1.707-4.627,0.064-6.363l4.286-4.199C32.225,70.637,35.08,70.666,36.817,72.438 M38.959,70.338
		c-2.899-2.959-7.647-3.006-10.606-0.107l-4.286,4.199c-2.959,2.898-3.007,7.646-0.107,10.605s7.647,3.008,10.606,0.109l4.285-4.201
		C41.811,78.045,41.858,73.297,38.959,70.338L38.959,70.338z"/>
	<path fill="#8599A9" d="M47.357,78.908c1.737,1.773,1.709,4.627-0.064,6.365l-6.428,6.299c-1.772,1.736-4.628,1.707-6.364-0.064
		c-1.736-1.773-1.707-4.627,0.065-6.363l6.428-6.299C42.766,77.109,45.621,77.137,47.357,78.908 M49.5,76.811
		c-2.898-2.959-7.647-3.006-10.606-0.107l-6.428,6.299c-2.959,2.898-3.007,7.646-0.107,10.605c2.898,2.959,7.646,3.006,10.605,0.107
		l6.429-6.299C52.351,84.518,52.4,79.768,49.5,76.811L49.5,76.811z"/>
	<path fill="#8599A9" d="M55.756,87.48c1.736,1.771,1.708,4.627-0.064,6.363l-6.429,6.299c-1.773,1.738-4.627,1.709-6.364-0.064
		c-1.736-1.773-1.707-4.627,0.065-6.363l6.429-6.299C51.166,85.68,54.019,85.707,55.756,87.48 M57.899,85.381
		c-2.899-2.959-7.646-3.006-10.606-0.107l-6.428,6.299c-2.959,2.898-3.008,7.646-0.108,10.607c2.899,2.957,7.647,3.006,10.606,0.105
		l6.429-6.299C60.75,93.088,60.798,88.34,57.899,85.381L57.899,85.381z"/>
	<path fill="#8599A9" d="M62.012,98.152c1.736,1.771,1.707,4.625-0.065,6.363l-4.285,4.199c-1.772,1.736-4.627,1.707-6.363-0.064
		c-1.737-1.773-1.708-4.627,0.064-6.365l4.286-4.199C57.421,96.35,60.275,96.379,62.012,98.152 M64.155,96.053
		c-2.899-2.961-7.647-3.008-10.606-0.109l-4.285,4.199c-2.959,2.9-3.008,7.646-0.107,10.607c2.898,2.957,7.646,3.006,10.605,0.107
		l4.285-4.201C67.006,103.758,67.055,99.012,64.155,96.053L64.155,96.053z"/>
</g>
<path fill="#8599A9" d="M73.506,45.586l-15.553-0.244c-0.492-0.005-0.956,0.232-1.24,0.634l-0.378,0.535l-6.488,8.842
	c-1.452,2.013-4.271,2.467-6.282,1.016c-0.211-0.152-0.408-0.322-0.587-0.504c-1.535-1.566-1.715-3.997-0.428-5.78l0.306-0.423
	l0.017,0.012l13.211-18.373l31.123-1.757c0.23-0.013,0.445-0.093,0.645-0.206l20.596,28.934c-0.107,0.094-0.207,0.195-0.281,0.313
	l-8.605,13.588l2.158,2.201l8.85-13.974l14.879-12.379c0.314-0.252,0.514-0.621,0.555-1.021c0.041-0.402-0.084-0.802-0.342-1.112
	l-23.844-29.274c-0.512-0.62-1.43-0.718-2.068-0.224L86.572,26.575l-31.375,1.771c-0.451,0.026-0.868,0.254-1.133,0.622
	l-8.911,12.394l-5.035,6.967c-2.171,3.006-1.792,7.074,0.716,9.636c0.296,0.3,0.62,0.581,0.974,0.837
	c3.359,2.423,8.046,1.668,10.472-1.69l6.263-8.584l0.166-0.176l13.357,0.051L73.506,45.586z"/>
</svg>
