<?xml version="1.0" encoding="utf-8"?>
<!-- Generator: Adobe Illustrator 16.0.0, SVG Export Plug-In . SVG Version: 6.00 Build 0)  -->
<!DOCTYPE svg PUBLIC "-//W3C//DTD SVG 1.1//EN" "http://www.w3.org/Graphics/SVG/1.1/DTD/svg11.dtd">
<svg version="1.1" id="Layer_1" xmlns="http://www.w3.org/2000/svg" xmlns:xlink="http://www.w3.org/1999/xlink" x="0px" y="0px"
	 width="128px" height="128px" viewBox="0 0 128 128" enable-background="new 0 0 128 128" xml:space="preserve">
<g>
	<g>
		<path fill="#8599A9" d="M32.143,74.094c-8.239,2.864-19.678,8.788-26.75,22.653c-4.215,8.047-4.516,16.16-0.825,22.269
			C7.148,123.278,11.655,126,16,126h12c0,0,12.294,0,13,0c1,0,2-1,2-2C43,115.843,39.074,71.682,32.143,74.094z"/>
	</g>
	<g>
		<path fill="#8599A9" d="M65.858,74.094c8.238,2.864,19.678,8.788,26.75,22.653c4.215,8.047,4.516,16.16,0.824,22.269
			c-2.58,4.263-7.086,6.984-11.432,6.984h-12c0,0-12.295,0-13,0c-1,0-2-1-2-2C55.001,115.843,58.927,71.682,65.858,74.094z"/>
	</g>
</g>
<path fill="#FFFFFF" d="M49,29c-9.925,0-18,8.075-18,18s8.075,18,18,18c9.925,0,18-8.075,18-18S58.925,29,49,29z"/>
<path fill="#8599A9" d="M49,29c9.925,0,18,8.075,18,18s-8.075,18-18,18c-9.925,0-18-8.075-18-18S39.075,29,49,29 M49,26
	c-11.598,0-21,9.402-21,21s9.402,21,21,21c11.598,0,21-9.402,21-21S60.598,26,49,26L49,26z"/>
<path fill="#D5E381" d="M50,85c-0.087-0.546-0.431-1.072-1-1.072c-0.568,0-0.913,0.526-1,1.072c0,0-4.579,19.115-4.651,19.662
	c-0.033,0.241-0.159,0.552,0.044,1.052c0.203,0.501,3.643,8.981,3.643,8.981c0.001,0.002,0.001,0.002,0.001,0.005l0.004,0.007h0.001
	C47.367,115.466,48.122,116,49,116c0.878,0,1.632-0.534,1.957-1.293l0,0l0.002-0.007c0.002-0.003,0.004-0.003,0.004-0.005
	c0,0,3.463-8.356,3.698-9.012c0.065-0.186,0.131-0.63,0.047-0.952C54.604,104.335,50,85,50,85z"/>
<path fill="#D5E381" d="M52,80c0,0-0.896,2-2,2h-2c-1.104,0-2-2-2-2s-2-4-2-5s0.896-2,2-2h6c1.104,0,2,1,2,2S52,80,52,80z"/>
<path fill="#FFFFFF" d="M100,5c-12.683,0-23,9.42-23,21c0,4.067,1.276,8.012,3.691,11.41l0.726,1.021l-0.216,1.234L79.85,47.4
	l7.506-2.741l1.163-0.425l1.124,0.519C92.869,46.244,96.354,47,100,47c12.683,0,23-9.42,23-21S112.683,5,100,5z"/>
<path fill="#D5E381" d="M100,5c12.683,0,23,9.42,23,21s-10.317,21-23,21c-3.646,0-7.131-0.756-10.357-2.246l-1.124-0.519
	l-1.163,0.425L79.85,47.4l1.352-7.736l0.216-1.234l-0.726-1.021C78.276,34.012,77,30.067,77,26C77,14.42,87.317,5,100,5 M100,2
	C85.641,2,74,12.745,74,26c0,4.854,1.562,9.371,4.246,13.148L76,52l12.385-4.522C91.881,49.092,95.826,50,100,50
	c14.359,0,26-10.745,26-24S114.359,2,100,2L100,2z"/>
</svg>
