<?xml version="1.0" encoding="utf-8"?>
<!-- Generator: Adobe Illustrator 16.0.0, SVG Export Plug-In . SVG Version: 6.00 Build 0)  -->
<!DOCTYPE svg PUBLIC "-//W3C//DTD SVG 1.1//EN" "http://www.w3.org/Graphics/SVG/1.1/DTD/svg11.dtd">
<svg version="1.1" id="Layer_1" xmlns="http://www.w3.org/2000/svg" xmlns:xlink="http://www.w3.org/1999/xlink" x="0px" y="0px"
	 width="128px" height="128px" viewBox="0 0 128 128" enable-background="new 0 0 128 128" xml:space="preserve">
<path fill="#D5E381" d="M124,88H63.828l11.586-11.586c0.781-0.781,0.781-2.047,0-2.828s-2.047-0.781-2.828,0l-15,15
	c-0.041,0.041-0.07,0.088-0.107,0.131c-0.044,0.053-0.091,0.103-0.129,0.158c-0.038,0.056-0.066,0.114-0.097,0.172
	c-0.031,0.057-0.065,0.112-0.091,0.172c-0.026,0.062-0.042,0.125-0.062,0.188c-0.019,0.061-0.041,0.119-0.053,0.181
	c-0.014,0.063-0.018,0.129-0.025,0.194c-0.007,0.062-0.017,0.124-0.018,0.187c-0.001,0.063,0.007,0.127,0.012,0.191
	c0.005,0.063,0.007,0.128,0.019,0.191c0.011,0.062,0.031,0.121,0.048,0.183c0.018,0.063,0.032,0.127,0.056,0.189
	c0.022,0.059,0.054,0.113,0.083,0.17c0.03,0.061,0.058,0.122,0.094,0.18c0.034,0.054,0.078,0.104,0.118,0.154
	c0.037,0.047,0.067,0.098,0.108,0.142l15,16C72.935,107.788,73.467,108,74,108c0.49,0,0.982-0.18,1.368-0.541
	c0.806-0.756,0.847-2.021,0.091-2.827L63.617,92H122v30H25c-15.822,0-19-6.122-19-16c0-19.421,25.331-41.995,57.99-42
	c0.003,0,0.007,0,0.01,0c17.12,0,31-13.879,31-31S81.12,2,64,2C46.879,2,33,15.879,33,33c0,12.482,7.381,23.234,18.013,28.147
	C39.519,63.18,28.777,67.88,19.918,74.894C8.698,83.776,2,95.405,2,106c0,9.89,2.732,20,23,20h99c1.104,0,2-0.896,2-2V90
	C126,88.896,125.104,88,124,88z M37,33C37,18.112,49.112,6,64,6s27,12.112,27,27S78.888,60,64,60v0c-0.003,0-0.007,0-0.011,0
	C49.106,59.994,37,47.884,37,33z"/>
</svg>
