<?xml version="1.0" encoding="utf-8"?>
<!-- Generator: Adobe Illustrator 16.0.0, SVG Export Plug-In . SVG Version: 6.00 Build 0)  -->
<!DOCTYPE svg PUBLIC "-//W3C//DTD SVG 1.1//EN" "http://www.w3.org/Graphics/SVG/1.1/DTD/svg11.dtd">
<svg version="1.1" id="Layer_1" xmlns="http://www.w3.org/2000/svg" xmlns:xlink="http://www.w3.org/1999/xlink" x="0px" y="0px"
	 width="128px" height="128px" viewBox="0 0 128 128" enable-background="new 0 0 128 128" xml:space="preserve">
<rect x="55" y="18" fill="#8599A9" width="40" height="3"/>
<rect x="55" y="24" fill="#8599A9" width="40" height="3"/>
<path fill="#8599A9" d="M47,16c1.103,0,2,0.897,2,2v10c0,1.103-0.897,2-2,2H37c-1.103,0-2-0.897-2-2V18c0-1.103,0.897-2,2-2H47
	 M47,14H37c-2.209,0-4,1.791-4,4v10c0,2.209,1.791,4,4,4h10c2.209,0,4-1.791,4-4V18C51,15.791,49.209,14,47,14L47,14z"/>
<path fill="#8599A9" d="M47,38c1.103,0,2,0.897,2,2v10c0,1.103-0.897,2-2,2H37c-1.103,0-2-0.897-2-2V40c0-1.103,0.897-2,2-2H47
	 M47,36H37c-2.209,0-4,1.791-4,4v10c0,2.209,1.791,4,4,4h10c2.209,0,4-1.791,4-4V40C51,37.791,49.209,36,47,36L47,36z"/>
<path fill="#8599A9" d="M47,60c1.103,0,2,0.897,2,2v10c0,1.103-0.897,2-2,2H37c-1.103,0-2-0.897-2-2V62c0-1.103,0.897-2,2-2H47
	 M47,58H37c-2.209,0-4,1.791-4,4v10c0,2.209,1.791,4,4,4h10c2.209,0,4-1.791,4-4V62C51,59.791,49.209,58,47,58L47,58z"/>
<path fill="#8599A9" d="M47,82c1.103,0,2,0.897,2,2v10c0,1.103-0.897,2-2,2H37c-1.103,0-2-0.897-2-2V84c0-1.103,0.897-2,2-2H47
	 M47,80H37c-2.209,0-4,1.791-4,4v10c0,2.209,1.791,4,4,4h10c2.209,0,4-1.791,4-4V84C51,81.791,49.209,80,47,80L47,80z"/>
<rect x="55" y="40" fill="#8599A9" width="40" height="3"/>
<rect x="55" y="46" fill="#8599A9" width="40" height="3"/>
<rect x="55" y="62" fill="#8599A9" width="40" height="3"/>
<rect x="55" y="68" fill="#8599A9" width="40" height="3"/>
<rect x="55" y="84" fill="#8599A9" width="34" height="3"/>
<rect x="55" y="90" fill="#8599A9" width="26" height="3"/>
<g>
	<g>
		<path fill="#D5E381" d="M94.459,109.463c0.184-0.021,0.348,0.124,0.386,0.229c0.006,0.017,0.022,0.121,0.056,0.277l28.561-39.815
			l-3.256-2.335l-30.887,43.07C89.318,110.889,94.31,109.482,94.459,109.463z"/>
		<path fill="#D5E381" d="M125.324,72.72l-29.151,40.623c0.201,0.993,0.269,1.452,0.284,1.529c0.03,0.158-0.052,0.312-0.218,0.391
			c-0.168,0.073-5.609,1.469-5.753,1.527c-0.141,0.058-0.277,0.086-0.545-0.029c-0.268-0.117-4.091-1.902-4.98-2.344
			c-0.276-0.127-0.161-0.366-0.161-0.366s1.62-5.473,1.664-5.628c0.045-0.15,0.28-0.259,0.357-0.271
			c0.079-0.011,0.157,0.029,0.239,0.21C87.107,108.466,87,109,87,109l30.19-42.113l-4.193,0.687l-27.37,38.168l-4.999,18.982l0,0
			c-0.136,0.391-0.014,0.846,0.344,1.099c0.355,0.256,0.819,0.228,1.148-0.03h0.003l16.487-10.701L126,76.896L125.324,72.72z"/>
	</g>
</g>
<path fill="#476F80" d="M38,34c0,0,7.684-12.036,14-16v-2c0,0-4.214,1.336-14,11c-2.79-2.354-6-4-6-4l-1,2
	C31,25,34.421,27.713,38,34z"/>
<path fill="#476F80" d="M38,56c0,0,7.684-12.036,14-16v-2c0,0-4.214,1.336-14,11c-2.79-2.354-6-4-6-4l-1,2
	C31,47,34.421,49.713,38,56z"/>
<path fill="#476F80" d="M38,78c0,0,7.684-12.036,14-16v-2c0,0-4.214,1.336-14,11c-2.79-2.354-6-4-6-4l-1,2
	C31,69,34.421,71.713,38,78z"/>
<path fill="#476F80" d="M38,100c0,0,7.684-12.036,14-16v-2c0,0-4.214,1.336-14,11c-2.79-2.354-6-4-6-4l-1,2
	C31,91,34.421,93.713,38,100z"/>
<path fill="#D5E381" d="M82.429,110H29c-2.757,0-5-2.243-5-5V10c0-2.757,2.243-5,5-5h70c2.757,0,5,2.243,5,5V75.6l3-4.199V10
	c0-4.418-3.582-8-8-8H29c-4.418,0-8,3.582-8,8v95c0,4.419,3.582,8,8,8h52.571L82.429,110z"/>
</svg>
