<?xml version="1.0" encoding="utf-8"?>
<!-- Generator: Adobe Illustrator 16.0.0, SVG Export Plug-In . SVG Version: 6.00 Build 0)  -->
<!DOCTYPE svg PUBLIC "-//W3C//DTD SVG 1.1//EN" "http://www.w3.org/Graphics/SVG/1.1/DTD/svg11.dtd">
<svg version="1.1" id="Layer_1" xmlns="http://www.w3.org/2000/svg" xmlns:xlink="http://www.w3.org/1999/xlink" x="0px" y="0px"
	 width="128px" height="128px" viewBox="0 0 128 128" enable-background="new 0 0 128 128" xml:space="preserve">
<g>
	<path fill="#D5E381" d="M105.5,85C94.197,85,85,94.194,85,105.499C85,116.802,94.197,126,105.5,126s20.5-9.198,20.5-20.501
		C126,94.194,116.803,85,105.5,85z"/>
</g>
<rect x="55" y="18" fill="#8599A9" width="40" height="3"/>
<rect x="55" y="24" fill="#8599A9" width="40" height="3"/>
<path fill="#8599A9" d="M47,16c1.103,0,2,0.897,2,2v10c0,1.103-0.897,2-2,2H37c-1.103,0-2-0.897-2-2V18c0-1.103,0.897-2,2-2H47
	 M47,14H37c-2.209,0-4,1.791-4,4v10c0,2.209,1.791,4,4,4h10c2.209,0,4-1.791,4-4V18C51,15.791,49.209,14,47,14L47,14z"/>
<path fill="#8599A9" d="M47,38c1.103,0,2,0.897,2,2v10c0,1.103-0.897,2-2,2H37c-1.103,0-2-0.897-2-2V40c0-1.103,0.897-2,2-2H47
	 M47,36H37c-2.209,0-4,1.791-4,4v10c0,2.209,1.791,4,4,4h10c2.209,0,4-1.791,4-4V40C51,37.791,49.209,36,47,36L47,36z"/>
<path fill="#8599A9" d="M47,60c1.103,0,2,0.897,2,2v10c0,1.103-0.897,2-2,2H37c-1.103,0-2-0.897-2-2V62c0-1.103,0.897-2,2-2H47
	 M47,58H37c-2.209,0-4,1.791-4,4v10c0,2.209,1.791,4,4,4h10c2.209,0,4-1.791,4-4V62C51,59.791,49.209,58,47,58L47,58z"/>
<path fill="#8599A9" d="M47,82c1.103,0,2,0.897,2,2v10c0,1.103-0.897,2-2,2H37c-1.103,0-2-0.897-2-2V84c0-1.103,0.897-2,2-2H47
	 M47,80H37c-2.209,0-4,1.791-4,4v10c0,2.209,1.791,4,4,4h10c2.209,0,4-1.791,4-4V84C51,81.791,49.209,80,47,80L47,80z"/>
<rect x="55" y="40" fill="#8599A9" width="40" height="3"/>
<rect x="55" y="46" fill="#8599A9" width="40" height="3"/>
<rect x="55" y="62" fill="#8599A9" width="40" height="3"/>
<rect x="55" y="68" fill="#8599A9" width="40" height="3"/>
<rect x="55" y="84" fill="#8599A9" width="34" height="3"/>
<rect x="55" y="90" fill="#8599A9" width="26" height="3"/>
<path fill="#476F80" d="M38,34c0,0,7.684-12.036,14-16v-2c0,0-4.214,1.336-14,11c-2.79-2.354-6-4-6-4l-1,2
	C31,25,34.421,27.713,38,34z"/>
<path fill="#476F80" d="M38,56c0,0,7.684-12.036,14-16v-2c0,0-4.214,1.336-14,11c-2.79-2.354-6-4-6-4l-1,2
	C31,47,34.421,49.713,38,56z"/>
<path fill="#476F80" d="M38,78c0,0,7.684-12.036,14-16v-2c0,0-4.214,1.336-14,11c-2.79-2.354-6-4-6-4l-1,2
	C31,69,34.421,71.713,38,78z"/>
<path fill="#476F80" d="M38,100c0,0,7.684-12.036,14-16v-2c0,0-4.214,1.336-14,11c-2.79-2.354-6-4-6-4l-1,2
	C31,91,34.421,93.713,38,100z"/>
<path fill="#8599A9" d="M82.438,110H29c-2.757,0-5-2.243-5-5V10c0-2.757,2.243-5,5-5h70c2.757,0,5,2.243,5,5v72.052
	c0.496-0.031,0.996-0.053,1.5-0.053s1.004,0.021,1.5,0.053V10c0-4.418-3.582-8-8-8H29c-4.418,0-8,3.582-8,8v95c0,4.419,3.582,8,8,8
	h54.234C82.906,112.026,82.637,111.025,82.438,110z"/>
<path fill="#FFFFFF" d="M100.667,119c0,0,10.61-16.621,19.333-22.096v-2.762c0,0-5.82,1.845-19.333,15.19
	c-3.854-3.25-8.286-5.523-8.286-5.523L91,106.571C91,106.571,95.724,110.317,100.667,119z"/>
</svg>
