<?xml version="1.0" encoding="utf-8"?>
<!-- Generator: Adobe Illustrator 16.0.0, SVG Export Plug-In . SVG Version: 6.00 Build 0)  -->
<!DOCTYPE svg PUBLIC "-//W3C//DTD SVG 1.1//EN" "http://www.w3.org/Graphics/SVG/1.1/DTD/svg11.dtd">
<svg version="1.1" id="Layer_1" xmlns="http://www.w3.org/2000/svg" xmlns:xlink="http://www.w3.org/1999/xlink" x="0px" y="0px"
	 width="128px" height="128px" viewBox="0 0 128 128" enable-background="new 0 0 128 128" xml:space="preserve">
<g>
	<path fill="#8599A9" d="M121.571,80.79c-3.153,0.58-11.869,7.139-16.041,10.188c-4.931,1.146-7.403,2.594-10.363,3.763
		c0.664,1.28,1.061,2.699,1.078,4.113c0.036,2.917-1.456,5.501-4.2,7.273c-1.843,1.192-4.217,1.772-6.857,2.025
		c-3.062,0.295-6.48,0.148-9.841,0.002l-3.048-0.128c-5.463-0.241-12.265-0.543-15.181,2.027c-0.864,0.761-2.18,0.679-2.94-0.185
		c-0.762-0.863-0.678-2.179,0.184-2.939c4.179-3.682,11.91-3.339,18.121-3.065l3.044,0.13c5.337,0.23,11.388,0.488,14.257-1.365
		c1.542-0.995,2.316-2.249,2.297-3.727c-0.021-1.822-1.244-3.547-2.38-4.245c-1.24-0.76-2.992-1.266-4.938-1.6
		c-10.975-1.379-26.925,0.966-26.925,0.966s-22.525-9.415-32.339-8.473c-9.813,0.941-15.154,6.337-15.154,6.337L3,94
		c-1.434,0.234-1,2-0.128,4.327c0.971,2.592,6.09,18.386,7.318,22.452c1.227,4.068,4.438,2.644,7.024,1.977
		c2.587-0.666,6.318-1.025,8.583-0.684c2.266,0.34,29.583,3.019,31.269,3.133c1.686,0.117,4.845,1.069,8.509,0.718
		c3.664-0.353,5.503-1.505,8.024-2.863c2.521-1.357,22.369-11.075,25.317-12.335c2.951-1.26,5.323-4.138,7.223-6.134
		c1.9-1.997,16.293-14.816,17.444-15.903c1.152-1.087,1.946-2.976,2.354-4.55C126.344,82.563,124.724,80.209,121.571,80.79z"/>
</g>
<circle fill="#D5E381" cx="64.066" cy="20.065" r="18.065"/>
<path fill="#D5E381" d="M91.842,59.424c-0.271-0.528-0.553-1.042-0.842-1.535c0-0.004-0.002-0.008-0.006-0.01
	c-1.232-2.11-2.627-3.909-4.104-5.438c-1.129-1.182-2.328-2.221-3.607-3.143c-0.186-0.134-0.367-0.264-0.555-0.392
	c-0.027-0.021-0.059-0.042-0.086-0.064c-2.721-1.873-5.465-3.072-7.82-3.832c-0.9-0.292-1.77-0.527-2.602-0.723
	C68.832,43.423,66,43,64,43s-4.832,0.423-8.221,1.289c-0.832,0.195-1.701,0.431-2.602,0.723c-2.355,0.76-5.1,1.959-7.82,3.832
	c-0.027,0.022-0.059,0.043-0.086,0.064c-0.188,0.127-0.369,0.257-0.555,0.392c-1.279,0.922-2.479,1.961-3.607,3.143
	c-1.477,1.529-2.871,3.328-4.104,5.438C37.002,57.881,37,57.885,37,57.889c-0.289,0.493-0.57,1.007-0.842,1.535
	c-2.682,5.119-2.873,10.284-0.521,14.168C37.275,76.304,40.236,78,43,78l21,0.02L85,78c2.764,0,5.725-1.696,7.363-4.408
	C94.715,69.708,94.523,64.543,91.842,59.424z"/>
</svg>
