<?xml version="1.0" encoding="utf-8"?>
<!-- Generator: Adobe Illustrator 16.0.0, SVG Export Plug-In . SVG Version: 6.00 Build 0)  -->
<!DOCTYPE svg PUBLIC "-//W3C//DTD SVG 1.1//EN" "http://www.w3.org/Graphics/SVG/1.1/DTD/svg11.dtd">
<svg version="1.1" id="Layer_1" xmlns="http://www.w3.org/2000/svg" xmlns:xlink="http://www.w3.org/1999/xlink" x="0px" y="0px"
	 width="128px" height="128px" viewBox="0 0 128 128" enable-background="new 0 0 128 128" xml:space="preserve">
<g>
	<g>
		<path fill="#8599A9" d="M23.85,69.373C17.878,71.45,9.585,75.744,4.459,85.794c-3.056,5.834-3.273,11.715-0.598,16.143
			c1.871,3.09,5.138,5.063,8.288,5.063h8.698c0,0,8.912,0,9.424,0c0.725,0,1.45-0.725,1.45-1.449
			C31.721,99.637,28.875,67.625,23.85,69.373z"/>
	</g>
	<path fill="#8599A9" d="M41.87,107c0.039,0,0.141,0,0.27,0c0.394-1.09,0.866-2.181,1.436-3.268
		c5.533-10.848,14.427-15.624,20.913-17.72c0.945-0.305,1.909-0.569,2.874-0.804c-5.146-9.622-13.219-13.801-19.07-15.836
		c-5.025-1.748-7.871,30.264-7.871,36.178C40.42,106.275,41.145,107,41.87,107z"/>
</g>
<path fill="#D5E381" d="M36.795,77.279c-0.063-0.395-0.312-0.777-0.725-0.777c-0.412,0-0.662,0.383-0.726,0.777
	c0,0-3.319,13.856-3.371,14.254c-0.023,0.174-0.115,0.398,0.032,0.762c0.147,0.362,2.64,6.51,2.64,6.51
	c0.001,0.002,0.001,0.002,0.001,0.004l0.002,0.005h0.001c0.236,0.55,0.783,0.938,1.419,0.938c0.636,0,1.183-0.388,1.418-0.938l0,0
	l0.001-0.005c0.001-0.002,0.003-0.002,0.003-0.004c0,0,2.51-6.057,2.681-6.531c0.047-0.135,0.095-0.457,0.034-0.691
	C40.132,91.295,36.795,77.279,36.795,77.279z"/>
<path fill="#D5E381" d="M38.245,73.655c0,0-0.649,1.449-1.45,1.449h-1.45c-0.8,0-1.449-1.449-1.449-1.449s-1.45-2.9-1.45-3.624
	c0-0.726,0.649-1.451,1.45-1.451h4.349c0.801,0,1.45,0.726,1.45,1.451C39.694,70.755,38.245,73.655,38.245,73.655z"/>
<path fill="#D5E381" d="M107.753,105.096c-5.066-9.933-13.217-14.307-19.164-16.229c-1.102-0.356-2.164-0.644-3.176-0.874h-0.059
	C81.687,87.105,78.435,87,77.231,87c-0.003,0-0.066,0.001-0.134,0.001c-0.034,0-0.069,0-0.098-0.001
	c-0.028,0.001-0.063,0.001-0.098,0.001c-0.067,0-0.131-0.001-0.134-0.001c-1.203,0-4.455,0.105-8.123,0.993h-0.059
	c-1.012,0.23-2.074,0.518-3.176,0.874c-5.947,1.922-14.098,6.296-19.164,16.229c-3.02,5.762-3.234,11.575-0.59,15.949
	C47.505,124.1,50.587,126,53.7,126H77h23.3c3.113,0,6.195-1.9,8.043-4.955C110.987,116.671,110.772,110.857,107.753,105.096z"/>
<path fill="#8599A9" d="M35.985,39c6.057,0,10.985,4.928,10.985,10.985S42.042,60.97,35.985,60.97S25,56.042,25,49.985
	S29.928,39,35.985,39 M35.985,36C28.261,36,22,42.261,22,49.985S28.261,63.97,35.985,63.97S49.97,57.708,49.97,49.985
	S43.708,36,35.985,36L35.985,36z"/>
<path fill="#8599A9" d="M77.015,59C83.072,59,88,63.928,88,69.984c0,6.058-4.928,10.985-10.985,10.985
	c-6.057,0-10.984-4.928-10.984-10.985C66.03,63.928,70.958,59,77.015,59 M77.015,56c-7.723,0-13.984,6.261-13.984,13.984
	c0,7.725,6.262,13.985,13.984,13.985C84.739,83.97,91,77.709,91,69.984C91,62.261,84.739,56,77.015,56L77.015,56z"/>
<g>
	<path fill="#D5E381" d="M72.641,36.439c-2.771,0-5.416-0.573-7.864-1.704l-1.482-0.685l-5.253,1.917l0.947-5.414l-0.959-1.348
		c-1.798-2.529-2.748-5.463-2.748-8.487C55.281,12.052,63.068,5,72.641,5c8.494,0,15.57,5.557,17.059,12.865
		c0.812-0.707,1.68-1.36,2.595-1.955C89.977,7.915,82.057,2,72.641,2c-11.227,0-20.359,8.397-20.359,18.719
		c0,3.65,1.143,7.187,3.303,10.226l0.232,0.327L54,41l9.159-3.707l0.36,0.166c2.844,1.314,5.913,1.98,9.121,1.98
		c3.604,0,6.985-0.874,9.924-2.39c-0.178-1.075-0.277-2.166-0.281-3.267C79.523,35.458,76.207,36.439,72.641,36.439z"/>
</g>
<path fill="#8599A9" d="M87,54l1.816-9.728l-0.232-0.327c-2.16-3.04-3.303-6.576-3.303-10.226C85.281,23.397,94.414,15,105.641,15
	S126,23.397,126,33.719c0,10.322-9.133,18.72-20.359,18.72c-3.208,0-6.277-0.666-9.121-1.98l-0.36-0.166L87,54z M96.294,47.051
	l1.482,0.685c2.448,1.13,5.094,1.704,7.864,1.704c9.572,0,17.359-7.052,17.359-15.72C123,25.052,115.213,18,105.641,18
	s-17.359,7.052-17.359,15.719c0,3.024,0.95,5.958,2.748,8.487l0.959,1.348l-0.947,5.414L96.294,47.051z"/>
</svg>
